# xmcd CD database file
#
# Track frame offsets:
#	150
#	12240
#	25066
#	38410
#	51257
#	63319
#	79667
#	94892
#	108010
#	124346
#	137429
#	149745
#	166775
#
# Disc length: 2400 seconds
#
# Revision: 0
# Processed by: cddbd v1.5.2PL0 Copyright (c) Steve Scherf et al.
# Submitted via: CDex 1.70beta2
#
DISCID=a2095e0d
DTITLE=Vagner and Vycital - My jsme kluci vockovany Olsanem
DYEAR=2007
DGENRE=Country
TTITLE0=My jsme kluci vockovany \olsanem
TTITLE1=Kdyz jsme opustili Prahu
TTITLE2=Abilene
TTITLE3=Neklaunova zpoved
TTITLE4=Porad cestuju sam
TTITLE5=Blizard
TTITLE6=Nejvetsi role Cliftona Jamese
TTITLE7=Tahnu se jak testo strudlu
TTITLE8=To je ta hranice
TTITLE9=To tenkrat v ctyricatom osmom
TTITLE10=Glenn Miller story
TTITLE11=Bry doden Jore Marine ga,ga
TTITLE12=Mas stesti, ze jsi kocour
EXTD=YEAR: 2007
EXTT0=
EXTT1=
EXTT2=
EXTT3=
EXTT4=
EXTT5=
EXTT6=
EXTT7=
EXTT8=
EXTT9=
EXTT10=
EXTT11=
EXTT12=
PLAYORDER=
